<svg xmlns="http://www.w3.org/2000/svg"><style>:root svg:not(:target){display:none}</style><svg fill="none" id="bg-promo-line" viewBox="0 0 320 85"><path d="M0 80.757s11.953-2.475 16-2.57c4.045-.094 12.074 1.708 16.13 1.834 4.057.126 11.906-1.098 15.873-.814 3.967.284 11.927 3.21 16 3.148 4.071-.063 11.952-2.985 15.998-3.669 4.046-.683 11.98-1.813 16-1.75 4.019.063 12.011 1.65 15.999 2.27 3.988.62 11.943 2.776 15.999 2.707 4.056-.068 11.927-2.98 15.999-3.232 4.072-.252 11.996 1.461 15.999 1.225 4.004-.237 11.927-3.248 16-3.148 4.072.1 11.942 3.258 15.999 3.994 4.056.736 12.543 1.824 16.758 1.95 3.814.11 12.29 1.54 15.245-.873 12.196-9.954 5.089-49.48 16-60.816 2.897-3.012 11.827-4.636 15.999-4.893 4.172-.258 11.948 2.544 15.999 2.796 4.051.252 12.333-.11 16.373-.788 4.041-.678 12.012-2.686 15.631-4.546C308.531 11.253 320 1 320 1" stroke="url(#bg-promo-line_0)" stroke-width="2" stroke-miterlimit="10"></path><defs><linearGradient id="bg-promo-line_0" x1="203.988" y1="83.252" x2="203.988" y2="1" gradientUnits="userSpaceOnUse"><stop stop-color="#D90000"></stop><stop offset="1" stop-color="#0BFF6C"></stop></linearGradient></defs></svg><svg fill="none" id="bg-promo" viewBox="0 0 320 150"><path d="M0 79.727s11.954-2.474 16-2.57c4.046-.095 12.074 1.707 16.131 1.834s11.905-1.098 15.873-.815c3.966.284 11.927 3.21 15.998 3.146 4.07-.064 11.954-2.984 16-3.666 4.046-.683 11.978-1.814 16-1.75 4.019.063 12.011 1.65 15.997 2.27 3.989.62 11.943 2.773 16 2.706 4.057-.069 11.927-2.978 16-3.23 4.073-.254 11.996 1.46 16 1.224s11.927-3.247 16-3.147c4.073.1 11.942 3.258 16 3.993 4.057.736 12.543 1.822 16.756 1.95 3.815.11 12.29 1.54 15.246-.872 12.196-9.951 5.09-49.462 16-60.793 2.897-3.011 11.826-4.634 15.997-4.891 4.173-.258 11.95 2.542 16 2.795 4.051.251 12.332-.111 16.372-.789 4.041-.678 12.011-2.684 15.63-4.544C308.531 10.25 320 0 320 0v150H0V79.727Z" fill="url(#bg-promo_0)"></path><defs><linearGradient id="bg-promo_0" x1="160" y1="32.778" x2="160" y2="150" gradientUnits="userSpaceOnUse"><stop stop-opacity=".8"></stop><stop offset="1" stop-opacity="0"></stop></linearGradient></defs></svg><svg fill="none" id="camera" viewBox="0 0 50 50"><circle cx="25" cy="25" r="25" fill="#6AB836"></circle><path d="M29.368 16.25H12.083A2.086 2.086 0 0 0 10 18.333v13.71a2.086 2.086 0 0 0 2.083 2.083h17.285a2.086 2.086 0 0 0 2.083-2.083v-13.71a2.086 2.086 0 0 0-2.083-2.083Zm3.472 11.792 7.16 3.91V18.47l-7.16 3.909v5.662Z" fill="#fff"></path></svg><svg fill="none" id="chat" viewBox="0 0 50 50"><circle cx="25" cy="25" r="25" fill="#6AB836"></circle><path d="M37.363 18.848h-6.152v-4.395a2.64 2.64 0 0 0-2.637-2.637H12.637A2.64 2.64 0 0 0 10 14.453V25a2.64 2.64 0 0 0 2.637 2.637h.879v2.636a.88.88 0 0 0 1.366.731l3.907-2.604v3.63a2.64 2.64 0 0 0 2.637 2.637h8.64l5.052 3.368a.88.88 0 0 0 1.366-.73v-2.638h.88A2.64 2.64 0 0 0 40 32.031V21.484a2.64 2.64 0 0 0-2.637-2.636Zm-18.185 7.18h-.002l-3.903 2.603v-1.874a.88.88 0 0 0-.878-.879h-1.758a.88.88 0 0 1-.88-.879V14.453a.88.88 0 0 1 .88-.879h15.937a.88.88 0 0 1 .88.88V25a.88.88 0 0 1-.88.879h-8.906a.893.893 0 0 0-.49.15v-.002Zm19.064 6.003a.88.88 0 0 1-.879.879h-1.758a.879.879 0 0 0-.878.879v1.873l-3.907-2.605a.88.88 0 0 0-.488-.147h-8.906a.88.88 0 0 1-.88-.88v-4.394h8.028A2.64 2.64 0 0 0 31.211 25v-4.394h6.152a.88.88 0 0 1 .88.879V32.03Z" fill="#fff"></path><path d="M21.426 20.605h-7.031a.879.879 0 1 0 0 1.758h7.03a.88.88 0 0 0 0-1.758Zm5.39-3.515H14.395a.878.878 0 1 0 0 1.758h12.421a.879.879 0 1 0 0-1.758Z" fill="#fff"></path></svg><svg fill="none" id="logo" viewBox="0 0 85 47"><g clip-path="url(#logo_0)"><path d="M45.51 41.478a3.04 3.04 0 0 0-1.523-.395c-.55 0-1.063.132-1.524.395a2.981 2.981 0 0 0-1.102 1.07 2.829 2.829 0 0 0-.409 1.493c0 .545.135 1.032.409 1.484.273.453.642.811 1.105 1.071a3.04 3.04 0 0 0 1.524.395 3.048 3.048 0 0 0 2.629-1.466c.273-.452.408-.945.408-1.483 0-.539-.135-1.04-.408-1.494a2.965 2.965 0 0 0-1.106-1.07h-.003Zm.54 3.75c-.214.359-.503.64-.865.845-.366.205-.765.31-1.198.31a2.39 2.39 0 0 1-1.195-.31 2.335 2.335 0 0 1-.866-.844 2.256 2.256 0 0 1-.32-1.188 2.321 2.321 0 0 1 1.186-2.038 2.377 2.377 0 0 1 1.195-.311c.43 0 .832.104 1.197.309.366.205.655.486.867.847.215.358.32.756.32 1.194 0 .437-.108.829-.32 1.187ZM9.193 41.209H8.41l-1.683 2.263-1.69-2.264h-.783l2.061 2.73-2.196 2.946h.783L6.727 44.4l1.815 2.484h.79l-2.197-2.946 2.058-2.73ZM36.833 46.884h.657v-2.42h2.7v-.566h-2.7v-2.09h3.103v-.6h-3.76v5.676ZM51.74 44.292c.19-.153.34-.34.444-.569.108-.226.16-.477.16-.752 0-.349-.08-.655-.24-.921a1.641 1.641 0 0 0-.663-.621 2.063 2.063 0 0 0-.964-.22h-2.414v5.675h.657v-2.166h1.508c.08 0 .138 0 .175-.003l1.3 2.169h.76l-1.394-2.267c.255-.064.477-.172.67-.325Zm-3.02-.14v-2.353h1.729c.23 0 .442.052.63.153.187.1.338.242.445.42.108.177.16.379.16.605 0 .226-.052.431-.16.609a1.104 1.104 0 0 1-.44.416c-.184.1-.392.15-.626.15h-1.741.003ZM15.855 44.274h2.7v-.563h-2.7v-1.903h3.102v-.6h-3.76v5.676h3.797v-.597h-3.14v-2.013ZM23.66 44.292c.19-.153.34-.34.445-.569.107-.226.16-.477.16-.752 0-.349-.08-.655-.24-.921a1.64 1.64 0 0 0-.663-.621 2.063 2.063 0 0 0-.965-.22h-2.41v5.675h.656v-2.166h1.508c.077 0 .139 0 .175-.003l1.3 2.169h.761l-1.394-2.267c.255-.064.476-.172.67-.325h-.003Zm-3.02-.14v-2.353h1.73c.23 0 .442.052.63.153.187.1.337.242.445.42.107.177.16.379.16.605 0 .226-.053.431-.16.609a1.104 1.104 0 0 1-.44.416 1.29 1.29 0 0 1-.626.15h-1.742.003ZM13.435 41.444a1.973 1.973 0 0 0-.965-.236h-2.325v5.676h.657v-1.98h1.68c.357 0 .676-.08.959-.238.28-.16.5-.38.66-.661.16-.282.24-.603.24-.96 0-.359-.08-.668-.24-.946a1.69 1.69 0 0 0-.666-.655Zm.089 2.249a1.206 1.206 0 0 1-1.063.624h-1.655v-2.512h1.643c.227 0 .436.055.626.168a1.245 1.245 0 0 1 .609 1.08c0 .236-.053.45-.16.643v-.003ZM24.762 41.799h1.83v5.085h.658v-5.085h1.837v-.59h-4.325v.59ZM33.282 44.173c-.377-.242-.856-.404-1.44-.49-.55-.07-.961-.183-1.235-.342-.273-.16-.408-.389-.408-.688 0-.3.107-.524.32-.707.211-.184.567-.279 1.065-.279.289 0 .534.043.74.126.206.082.363.202.47.355.108.153.16.33.16.529h.663c0-.315-.076-.59-.233-.83a1.575 1.575 0 0 0-.691-.562c-.304-.135-.673-.202-1.103-.202-.473 0-.86.07-1.167.214-.307.144-.528.33-.67.566a1.503 1.503 0 0 0-.209.79c0 .351.102.639.308.853.202.217.457.38.758.483.301.108.645.19 1.035.251.492.074.873.19 1.14.35.267.158.402.403.402.73 0 .364-.135.64-.408.83-.274.186-.664.281-1.17.281a1.95 1.95 0 0 1-.82-.162 1.352 1.352 0 0 1-.541-.431.993.993 0 0 1-.188-.582h-.66c0 .297.083.578.246.845.166.266.415.483.75.648.334.168.74.251 1.219.251.479 0 .863-.067 1.2-.202.339-.135.593-.327.775-.578.178-.251.267-.55.267-.9 0-.526-.188-.908-.565-1.15l-.01.003ZM.657 44.274h2.697v-.563H.657v-1.903h3.1v-.6H0v5.676h3.796v-.597H.657v-2.013ZM79.069 45.789l-.006-.004-3.625-4.576h-.546v5.675h.657v-4.571l.003.003 3.615 4.568h.56v-5.675h-.658v4.58ZM73.405 41.209h-.657v5.675h.657v-5.675ZM81.864 44.274h2.697v-.563h-2.697v-1.903h3.1v-.6h-3.757v5.676H85v-.597h-3.136v-2.013ZM66.282 45.789l-.003-.004-3.624-4.576h-.55v5.675h.658v-4.571l.006.003 3.615 4.568h.556v-5.675h-.658v4.58ZM59.55 41.478a3.048 3.048 0 0 0-1.524-.395c-.55 0-1.062.132-1.526.395a2.98 2.98 0 0 0-1.103 1.07 2.828 2.828 0 0 0-.408 1.493c0 .545.135 1.032.408 1.484.273.453.642.811 1.106 1.071.467.263.974.395 1.523.395a3.048 3.048 0 0 0 2.63-1.466c.273-.452.408-.945.408-1.483 0-.539-.135-1.04-.408-1.494a2.965 2.965 0 0 0-1.106-1.07Zm.54 3.75c-.215.359-.503.64-.866.845-.365.205-.761.31-1.195.31-.433 0-.832-.105-1.194-.31a2.336 2.336 0 0 1-.867-.844 2.256 2.256 0 0 1-.319-1.188 2.322 2.322 0 0 1 1.186-2.038 2.369 2.369 0 0 1 1.194-.311c.433 0 .833.104 1.195.309.366.205.654.486.866.847.215.358.32.756.32 1.194 0 .437-.108.829-.32 1.187ZM69.078 41.209h-.658v5.675h3.48v-.597h-2.823V41.21Z" fill="#F6F8FA"></path><path d="M61.402 0H43.584c-2.227 0-4.039 1.805-4.039 4.023v28.573c0 2.218 1.813 4.023 4.04 4.023h17.817c2.227 0 4.039-1.805 4.039-4.023V4.023C65.44 1.805 63.629 0 61.4 0Zm.685 32.596a.684.684 0 0 1-.685.682H43.584a.684.684 0 0 1-.685-.682V4.023c0-.376.307-.682.685-.682h17.818c.378 0 .685.306.685.682v28.573Z" fill="#8060F6"></path><path d="M59.43 17.678a.85.85 0 0 0-.85.847v4.339c0 .422-.148.795-.443 1.107l-1.622 1.738c-.322.346-.728.52-1.198.52h-.061a.243.243 0 0 1-.218-.138.239.239 0 0 1 .052-.26l2.257-2.359a.797.797 0 0 0-.024-1.113.816.816 0 0 0-1.127.024l-2.9 3.032a1.541 1.541 0 0 0-.451 1.123v4.953h4.245v-2.117l2.871-3.766c.218-.294.329-.615.329-.976v-6.1a.857.857 0 0 0-.86-.848v-.006ZM48.787 22.38a.805.805 0 0 0-1.12-.027.8.8 0 0 0-.029 1.122l2.258 2.35c.07.07.086.175.043.26a.218.218 0 0 1-.209.138h-.07c-.47 0-.87-.174-1.19-.517l-1.63-1.738a1.59 1.59 0 0 1-.433-1.104v-4.339a.851.851 0 0 0-.85-.847c-.47 0-.861.38-.861.847v6.1c0 .365.105.683.329.977l2.865 3.766v2.117h4.254v-4.95c0-.44-.156-.814-.451-1.123l-2.909-3.032h.003ZM47.417 14.251v3.739a1.385 1.385 0 0 0 2.77 0V14.25a1.385 1.385 0 0 0-2.77 0Z" fill="#F6F8FA"></path><path d="M53.794 21.205h1.468a2.305 2.305 0 0 0 2.307-2.297V14.25a1.385 1.385 0 0 0-2.77 0v3.739c0 .759.62 1.38 1.385 1.38.138 0 .27-.028.396-.065a1.383 1.383 0 0 1-1.321.986h-1.468a1.38 1.38 0 0 0-1.3-.918c-.761 0-1.385.618-1.385 1.38a1.383 1.383 0 0 0 2.685.462l.003-.01Z" fill="#F6F8FA"></path><path d="M45.556 16.956c.46 0 .836-.374.836-.832h.003v-3.25c0-3.347 2.733-6.073 6.093-6.073s6.094 2.723 6.094 6.073v3.256h.003a.83.83 0 0 0 .836.826c.46 0 .832-.37.835-.826V12.87c0-4.268-3.486-7.737-7.77-7.737-4.285 0-7.771 3.472-7.771 7.74v3.25c0 .458.374.832.835.832h.006ZM17.48 28.992H2.503v-9.436H17.48v-2.493H2.503V7.624H17.48V5.131H0v26.357h17.48v-2.496ZM19.986 5.217v26.269h2.503v-11.93h14.98v-2.493h-14.98V7.624h14.98V5.131H19.986v.086ZM85 5.13h-2.503v26.358H85V5.131ZM70.023 5.13H67.52v26.355h2.504v-12.61l9.966 9.927.004-3.524-9.97-9.931V5.13Z" fill="#F6F8FA"></path></g><defs><clipPath id="logo_0"><path fill="#fff" d="M0 0h85v47H0z"></path></clipPath></defs></svg><svg fill="none" id="mic" viewBox="0 0 50 50"><circle cx="25" cy="25" r="25" fill="#6AB836"></circle><path d="M24.998 32.748a5.367 5.367 0 0 0 5.36-5.36V15.356A5.364 5.364 0 0 0 24.998 10a5.363 5.363 0 0 0-5.356 5.356v12.035A5.363 5.363 0 0 0 25 32.748Z" fill="#fff"></path><path d="M33.61 24.189h-1.067a.62.62 0 0 0-.621.62v2.179c0 3.817-3.103 6.923-6.92 6.923-3.818 0-6.927-3.103-6.927-6.92v-2.188a.62.62 0 0 0-.62-.62h-1.062a.62.62 0 0 0-.62.62v2.182c0 4.565 3.546 8.587 8.074 9.157v1.546H19.08a.62.62 0 0 0-.62.62v1.068c0 .342.279.62.62.62h11.837a.62.62 0 0 0 .62-.62V38.31a.62.62 0 0 0-.62-.621h-4.764v-1.546c4.53-.57 8.078-4.592 8.078-9.154v-2.185a.62.62 0 0 0-.62-.62v.006Z" fill="#fff"></path></svg></svg>