<svg width="320" height="151" viewBox="0 0 320 151" fill="none" xmlns="http://www.w3.org/2000/svg">
<path d="M0 80.7267C0 80.7267 11.9537 78.2533 15.9999 78.1578C20.046 78.0622 28.0738 79.8644 32.1311 79.9911C36.1884 80.1178 44.0359 78.8933 48.0041 79.1756C51.9701 79.46 59.9311 82.3867 64.0018 82.3222C68.0724 82.2578 75.9555 79.3378 80.0017 78.6556C84.0478 77.9733 91.9799 76.8422 96.0016 76.9067C100.021 76.9689 108.013 78.5556 111.999 79.1756C115.988 79.7956 123.942 81.9489 127.999 81.8822C132.056 81.8133 139.926 78.9044 143.999 78.6511C148.072 78.3978 155.995 80.1111 159.999 79.8756C164.003 79.64 171.926 76.6289 175.999 76.7289C180.072 76.8289 187.941 79.9867 191.999 80.7222C196.056 81.4578 204.542 82.5444 208.755 82.6711C212.57 82.7822 221.045 84.2111 224.001 81.8C236.197 71.8489 229.091 32.3378 240.001 21.0067C242.898 17.9956 251.827 16.3733 255.998 16.1156C260.171 15.8578 267.948 18.6578 271.998 18.9111C276.049 19.1622 284.33 18.8 288.37 18.1222C292.411 17.4444 300.381 15.4378 304 13.5778C308.531 11.2511 320 1 320 1V151H0V80.7267Z" fill="url(#paint0_linear_17_180)"/>
<path d="M0 80.7571C0 80.7571 11.9533 78.2818 15.9992 78.1872C20.0451 78.0926 28.0737 79.8952 32.1301 80.0214C36.1866 80.1475 44.036 78.923 48.0029 79.2068C51.9698 79.4906 59.9299 82.4179 64.0021 82.3548C68.0744 82.2917 75.9554 79.3697 80.0013 78.6865C84.0472 78.0033 91.981 76.8733 96.0005 76.9364C100.02 76.9995 108.012 78.5866 112 79.2068C115.988 79.8269 123.943 81.9817 127.999 81.9133C132.055 81.845 139.926 78.9335 143.998 78.6812C148.07 78.429 155.994 80.1422 159.997 79.9057C164.001 79.6693 171.924 76.6579 175.997 76.7577C180.069 76.8576 187.939 80.0161 191.996 80.7519C196.052 81.4876 204.539 82.5755 208.754 82.7017C212.568 82.812 221.044 84.2415 223.999 81.8292C236.195 71.8754 229.088 32.3489 239.999 21.0129C242.896 18.0015 251.826 16.3775 255.998 16.12C260.17 15.8625 267.946 18.6637 271.997 18.9159C276.048 19.1682 284.33 18.8056 288.37 18.1276C292.411 17.4496 300.382 15.4421 304.001 13.5816C308.531 11.2534 320 1 320 1" stroke="url(#paint1_linear_17_180)" stroke-width="2" stroke-miterlimit="10"/>
<defs>
<linearGradient id="paint0_linear_17_180" x1="160" y1="33.7778" x2="160" y2="151" gradientUnits="userSpaceOnUse">
<stop stop-opacity="0.8"/>
<stop offset="1" stop-opacity="0"/>
</linearGradient>
<linearGradient id="paint1_linear_17_180" x1="203.988" y1="83.2524" x2="203.988" y2="1.00001" gradientUnits="userSpaceOnUse">
<stop stop-color="#D90000"/>
<stop offset="1" stop-color="#0BFF6C"/>
</linearGradient>
</defs>
</svg>
