<svg width="320" height="85" viewBox="0 0 320 85" fill="none" xmlns="http://www.w3.org/2000/svg">
<path d="M0 80.7571C0 80.7571 11.9533 78.2818 15.9992 78.1872C20.0451 78.0926 28.0737 79.8952 32.1301 80.0214C36.1866 80.1475 44.036 78.923 48.0029 79.2068C51.9698 79.4906 59.9299 82.4179 64.0021 82.3548C68.0744 82.2917 75.9554 79.3697 80.0013 78.6865C84.0472 78.0033 91.981 76.8733 96.0005 76.9364C100.02 76.9995 108.012 78.5866 112 79.2068C115.988 79.8269 123.943 81.9817 127.999 81.9133C132.055 81.845 139.926 78.9335 143.998 78.6812C148.07 78.429 155.994 80.1422 159.997 79.9057C164.001 79.6693 171.924 76.6579 175.997 76.7577C180.069 76.8576 187.939 80.0161 191.996 80.7519C196.052 81.4876 204.539 82.5755 208.754 82.7017C212.568 82.812 221.044 84.2415 223.999 81.8292C236.195 71.8754 229.088 32.3489 239.999 21.0129C242.896 18.0015 251.826 16.3775 255.998 16.12C260.17 15.8625 267.946 18.6637 271.997 18.9159C276.048 19.1682 284.33 18.8056 288.37 18.1276C292.411 17.4496 300.382 15.4421 304.001 13.5816C308.531 11.2534 320 1 320 1" stroke="url(#paint0_linear_17_179)" stroke-width="2" stroke-miterlimit="10"/>
<defs>
<linearGradient id="paint0_linear_17_179" x1="203.988" y1="83.2524" x2="203.988" y2="1.00001" gradientUnits="userSpaceOnUse">
<stop stop-color="#D90000"/>
<stop offset="1" stop-color="#0BFF6C"/>
</linearGradient>
</defs>
</svg>
