<svg width="320" height="150" viewBox="0 0 320 150" fill="none" xmlns="http://www.w3.org/2000/svg">
<path d="M0 79.7267C0 79.7267 11.9537 77.2533 15.9999 77.1578C20.046 77.0622 28.0738 78.8644 32.1311 78.9911C36.1884 79.1178 44.0359 77.8933 48.0041 78.1756C51.9701 78.46 59.9311 81.3867 64.0018 81.3222C68.0724 81.2578 75.9555 78.3378 80.0017 77.6556C84.0478 76.9733 91.9799 75.8422 96.0016 75.9067C100.021 75.9689 108.013 77.5556 111.999 78.1756C115.988 78.7956 123.942 80.9489 127.999 80.8822C132.056 80.8133 139.926 77.9044 143.999 77.6511C148.072 77.3978 155.995 79.1111 159.999 78.8756C164.003 78.64 171.926 75.6289 175.999 75.7289C180.072 75.8289 187.941 78.9867 191.999 79.7222C196.056 80.4578 204.542 81.5444 208.755 81.6711C212.57 81.7822 221.045 83.2111 224.001 80.8C236.197 70.8489 229.091 31.3378 240.001 20.0067C242.898 16.9956 251.827 15.3733 255.998 15.1156C260.171 14.8578 267.948 17.6578 271.998 17.9111C276.049 18.1622 284.33 17.8 288.37 17.1222C292.411 16.4444 300.381 14.4378 304 12.5778C308.531 10.2511 320 0 320 0V150H0V79.7267Z" fill="url(#paint0_linear_17_178)"/>
<defs>
<linearGradient id="paint0_linear_17_178" x1="160" y1="32.7778" x2="160" y2="150" gradientUnits="userSpaceOnUse">
<stop stop-opacity="0.8"/>
<stop offset="1" stop-opacity="0"/>
</linearGradient>
</defs>
</svg>
