<svg width="50" height="50" viewBox="0 0 50 50" fill="none" xmlns="http://www.w3.org/2000/svg">
<circle cx="25" cy="25" r="25" fill="#6AB836"/>
<path d="M29.3681 16.25H12.0833C11.531 16.2506 11.0014 16.4702 10.6108 16.8608C10.2202 17.2514 10.0006 17.781 10 18.3333V32.0431C10.0006 32.5954 10.2202 33.125 10.6108 33.5156C11.0014 33.9062 11.531 34.1258 12.0833 34.1264H29.3681C29.9204 34.1257 30.4498 33.9059 30.8404 33.5154C31.2309 33.1248 31.4507 32.5954 31.4514 32.0431V18.3333C31.4507 17.781 31.2309 17.2515 30.8404 16.861C30.4498 16.4705 29.9204 16.2507 29.3681 16.25ZM32.8403 28.0417L40 31.9514V18.4708L32.8403 22.3799V28.0417Z" fill="white"/>
</svg>
