<svg xmlns="http://www.w3.org/2000/svg" width="80" height="80" viewBox="0 0 80 80">
  <circle cx="40" cy="40" r="39" stroke="none" stroke-width="2"/>
  <path d="M46.9889 26H19.3333C18.4495 26.0009 17.6022 26.3524 16.9773 26.9773C16.3524 27.6022 16.0009 28.4495 16 29.3333V51.2689C16.0009 52.1527 16.3524 53 16.9773 53.6249C17.6022 54.2499 18.4495 54.6013 19.3333 54.6022H46.9889C47.8726 54.601 48.7197 54.2495 49.3446 53.6246C49.9695 52.9997 50.321 52.1526 50.3222 51.2689V29.3333C50.321 28.4496 49.9695 27.6025 49.3446 26.9776C48.7197 26.3527 47.8726 26.0012 46.9889 26ZM52.5444 44.8667L64 51.1222V29.5533L52.5444 35.8078V44.8667Z" fill="white"/>
</svg>
