<svg width="50" height="50" viewBox="0 0 50 50" xmlns="http://www.w3.org/2000/svg">
<circle cx="25" cy="25" r="25" />
<path d="M37.3633 18.8477H31.2109V14.4531C31.2109 12.9988 30.0279 11.8164 28.5742 11.8164H12.6367C11.183 11.8164 10 12.9982 10 14.4531V25C10 26.4531 11.183 27.6367 12.6367 27.6367H13.5156V30.2734C13.5156 30.9766 14.302 31.3908 14.882 31.0041L18.7891 28.3996V32.0307C18.7891 33.4844 19.9721 34.6674 21.4258 34.6674H30.066L35.118 38.0354C35.6986 38.4227 36.4844 38.0084 36.4844 37.3041V34.6674H37.3633C38.817 34.6674 40 33.4844 40 32.0307V21.4844C40 20.0307 38.817 18.8477 37.3633 18.8477ZM19.1781 26.0271C19.177 26.0271 19.1764 26.0283 19.1758 26.0289L15.2734 28.6311V26.7572C15.2734 26.5241 15.1808 26.3006 15.016 26.1357C14.8512 25.9709 14.6276 25.8783 14.3945 25.8783H12.6367C12.1521 25.8783 11.7578 25.484 11.7578 24.9994V14.4531C11.7578 13.9686 12.1521 13.5742 12.6367 13.5742H28.5742C29.0588 13.5742 29.4531 13.9686 29.4531 14.4531V25C29.4531 25.4846 29.0588 25.8789 28.5742 25.8789H19.668C19.498 25.8789 19.3223 25.9316 19.1781 26.0283V26.0271ZM38.2422 32.0307C38.2422 32.5152 37.8479 32.9096 37.3633 32.9096H35.6055C35.3724 32.9096 35.1488 33.0022 34.984 33.167C34.8192 33.3318 34.7266 33.5554 34.7266 33.7885V35.6617L30.8195 33.0572C30.6752 32.961 30.5055 32.9096 30.332 32.9096H21.4258C20.9412 32.9096 20.5469 32.5152 20.5469 32.0307V27.6361H28.5742C30.0279 27.6361 31.2109 26.4531 31.2109 24.9994V20.6049H37.3633C37.8479 20.6049 38.2422 20.9992 38.2422 21.4838V32.0307Z" fill="white"/>
<path d="M21.4258 20.6055H14.3945C14.1614 20.6055 13.9379 20.6981 13.7731 20.8629C13.6082 21.0277 13.5156 21.2513 13.5156 21.4844C13.5156 21.7175 13.6082 21.941 13.7731 22.1059C13.9379 22.2707 14.1614 22.3633 14.3945 22.3633H21.4258C21.6589 22.3633 21.8824 22.2707 22.0473 22.1059C22.2121 21.941 22.3047 21.7175 22.3047 21.4844C22.3047 21.2513 22.2121 21.0277 22.0473 20.8629C21.8824 20.6981 21.6589 20.6055 21.4258 20.6055ZM26.8164 17.0898H14.3945C14.1614 17.0898 13.9379 17.1824 13.7731 17.3473C13.6082 17.5121 13.5156 17.7356 13.5156 17.9688C13.5156 18.2019 13.6082 18.4254 13.7731 18.5902C13.9379 18.7551 14.1614 18.8477 14.3945 18.8477H26.8164C27.0495 18.8477 27.2731 18.7551 27.4379 18.5902C27.6027 18.4254 27.6953 18.2019 27.6953 17.9688C27.6953 17.7356 27.6027 17.5121 27.4379 17.3473C27.2731 17.1824 27.0495 17.0898 26.8164 17.0898Z" fill="white"/>
</svg>
