<svg width="85" height="47" viewBox="0 0 85 47" fill="none" xmlns="http://www.w3.org/2000/svg">
<g clip-path="url(#clip0_17_151)">
<path d="M45.5101 41.4777C45.0463 41.2146 44.5364 41.083 43.9866 41.083C43.4369 41.083 42.9239 41.2146 42.4632 41.4777C41.9994 41.7408 41.6308 42.0988 41.3605 42.5485C41.0872 43.0013 40.952 43.497 40.952 44.0415C40.952 44.5861 41.0872 45.0726 41.3605 45.5254C41.6339 45.9782 42.0025 46.3362 42.4663 46.5962C42.9301 46.8593 43.4399 46.9909 43.9897 46.9909C44.5395 46.9909 45.0463 46.8593 45.5132 46.5962C45.977 46.3331 46.3455 45.9751 46.6189 45.5254C46.8923 45.0726 47.0274 44.58 47.0274 44.0415C47.0274 43.5031 46.8923 43.0013 46.6189 42.5485C46.3455 42.0957 45.977 41.7377 45.5132 41.4777H45.5101ZM46.0507 45.2286C45.8357 45.5866 45.547 45.8681 45.1845 46.073C44.819 46.278 44.4197 46.3821 43.9866 46.3821C43.5536 46.3821 43.1543 46.278 42.7918 46.073C42.4294 45.8681 42.1407 45.5866 41.9257 45.2286C41.7107 44.8707 41.6063 44.476 41.6063 44.0415C41.6063 43.6071 41.7138 43.2063 41.9257 42.8514C42.1376 42.4934 42.4263 42.212 42.7918 42.0039C43.1573 41.7959 43.5566 41.6918 43.9866 41.6918C44.4167 41.6918 44.819 41.7959 45.1845 42.0009C45.55 42.2058 45.8387 42.4873 46.0507 42.8483C46.2657 43.2063 46.3701 43.604 46.3701 44.0415C46.3701 44.479 46.2626 44.8707 46.0507 45.2286Z" fill="#F6F8FA"/>
<path d="M9.19297 41.2085H8.40975L6.72658 43.4725L5.03727 41.2085H4.25404L6.315 43.9376L4.1189 46.8839H4.90212L6.72658 44.3995L8.54182 46.8839H9.33119L7.13508 43.9376L9.19297 41.2085Z" fill="#F6F8FA"/>
<path d="M36.8331 46.8839H37.4904V44.4638H40.1903V43.8978H37.4904V41.8082H40.5926V41.2085H36.8331V46.8839Z" fill="#F6F8FA"/>
<path d="M51.7391 44.2925C51.9295 44.1395 52.08 43.9529 52.1844 43.7234C52.2919 43.497 52.3441 43.2461 52.3441 42.9708C52.3441 42.622 52.2643 42.316 52.1046 42.0499C51.9448 41.7837 51.7237 41.5756 51.4411 41.4288C51.1585 41.2819 50.836 41.2085 50.4767 41.2085H48.0625V46.8839H48.7198V44.7177H50.2279C50.3077 44.7177 50.3661 44.7177 50.403 44.7147L51.7022 46.8839H52.4639L51.0695 44.6168C51.3244 44.5525 51.5456 44.4454 51.7391 44.2925ZM48.7198 44.1517V41.799H50.449C50.6794 41.799 50.8913 41.851 51.0787 41.952C51.2661 42.0529 51.4166 42.1937 51.5241 42.3711C51.6316 42.5486 51.6838 42.7505 51.6838 42.9769C51.6838 43.2033 51.6316 43.4083 51.5241 43.5857C51.4166 43.7632 51.2722 43.9039 51.0848 44.0018C50.9005 44.1028 50.6917 44.1517 50.4583 44.1517H48.7167H48.7198Z" fill="#F6F8FA"/>
<path d="M15.8549 44.2741H18.5548V43.7112H15.8549V41.8082H18.9571V41.2085H15.1976V46.8839H18.994V46.2873H15.8549V44.2741Z" fill="#F6F8FA"/>
<path d="M23.6596 44.2925C23.85 44.1395 24.0005 43.9529 24.1049 43.7234C24.2124 43.497 24.2646 43.2461 24.2646 42.9708C24.2646 42.622 24.1848 42.316 24.0251 42.0499C23.8654 41.7837 23.6442 41.5756 23.3616 41.4288C23.0791 41.2819 22.7566 41.2085 22.3972 41.2085H19.9861V46.8839H20.6434V44.7177H22.1515C22.2283 44.7177 22.2897 44.7177 22.3265 44.7147L23.6258 46.8839H24.3875L22.9931 44.6168C23.248 44.5525 23.4691 44.4454 23.6626 44.2925H23.6596ZM20.6403 44.1517V41.799H22.3695C22.5999 41.799 22.8118 41.851 22.9992 41.952C23.1866 42.0529 23.3371 42.1937 23.4446 42.3711C23.5521 42.5486 23.6043 42.7505 23.6043 42.9769C23.6043 43.2033 23.5521 43.4083 23.4446 43.5857C23.3371 43.7632 23.1927 43.9039 23.0053 44.0018C22.818 44.1028 22.6122 44.1517 22.3788 44.1517H20.6372H20.6403Z" fill="#F6F8FA"/>
<path d="M13.4347 41.4441C13.149 41.288 12.8296 41.2085 12.4702 41.2085H10.1451V46.8839H10.8024V44.9044H12.4825C12.8388 44.9044 13.1583 44.8248 13.4408 44.6657C13.7203 44.5066 13.9415 44.2864 14.1012 44.0049C14.2609 43.7234 14.3408 43.4022 14.3408 43.0442C14.3408 42.6862 14.2609 42.3772 14.1012 42.0988C13.9415 41.8204 13.7203 41.6001 13.4347 41.4441ZM13.5238 43.6928C13.4163 43.8856 13.2719 44.0355 13.0845 44.1487C12.8972 44.2588 12.6883 44.3169 12.461 44.3169H10.8055V41.8051H12.4487C12.676 41.8051 12.8849 41.8602 13.0753 41.9734C13.2627 42.0866 13.4132 42.2395 13.5207 42.4292C13.6282 42.6189 13.6835 42.827 13.6835 43.0534C13.6835 43.289 13.6313 43.5031 13.5238 43.6959V43.6928Z" fill="#F6F8FA"/>
<path d="M24.7622 41.799H26.5928V46.8839H27.2501V41.799H29.0868V41.2085H24.7622V41.799Z" fill="#F6F8FA"/>
<path d="M33.2825 44.1731C32.9047 43.9314 32.4255 43.7692 31.842 43.6836C31.2922 43.6132 30.8806 43.5 30.6072 43.3409C30.3339 43.1818 30.1987 42.9524 30.1987 42.6525C30.1987 42.3527 30.3062 42.1294 30.5182 41.9458C30.7301 41.7622 31.0864 41.6674 31.584 41.6674C31.8727 41.6674 32.1184 41.7102 32.3242 41.7928C32.53 41.8754 32.6866 41.9947 32.7941 42.1477C32.9016 42.3007 32.9538 42.4781 32.9538 42.677H33.6173C33.6173 42.3619 33.5405 42.0865 33.3839 41.8479C33.2272 41.6092 32.9968 41.4226 32.6928 41.2849C32.3887 41.1503 32.0201 41.083 31.5901 41.083C31.1171 41.083 30.7301 41.1534 30.4229 41.2972C30.1158 41.441 29.8947 41.6276 29.7534 41.8632C29.6121 42.0988 29.5445 42.3619 29.5445 42.6525C29.5445 43.0044 29.6459 43.292 29.8517 43.5061C30.0544 43.7234 30.3093 43.8855 30.6103 43.9895C30.9113 44.0966 31.2553 44.1792 31.6454 44.2404C32.1368 44.3138 32.5177 44.4301 32.7849 44.5892C33.0521 44.7483 33.1873 44.993 33.1873 45.3204C33.1873 45.6845 33.0521 45.9598 32.7788 46.1495C32.5054 46.3362 32.1153 46.431 31.6085 46.431C31.2952 46.431 31.0219 46.3759 30.7885 46.2689C30.555 46.1587 30.3738 46.0149 30.2479 45.8375C30.1219 45.657 30.0605 45.4642 30.0605 45.2562H29.4001C29.4001 45.5529 29.4831 45.8344 29.6459 46.1006C29.8117 46.3668 30.0605 46.584 30.3953 46.7492C30.7301 46.9175 31.1355 47.0001 31.6147 47.0001C32.0938 47.0001 32.4778 46.9328 32.8156 46.7982C33.1535 46.6635 33.4084 46.4708 33.5896 46.2199C33.7678 45.969 33.8569 45.6692 33.8569 45.3204C33.8569 44.7942 33.6695 44.4117 33.2917 44.17L33.2825 44.1731Z" fill="#F6F8FA"/>
<path d="M0.657296 44.2741H3.35405V43.7112H0.657296V41.8082H3.75641V41.2085H0V46.8839H3.79634V46.2873H0.657296V44.2741Z" fill="#F6F8FA"/>
<path d="M79.0689 45.7886L79.0628 45.7855L75.4384 41.2085H74.8917V46.8839H75.549V42.313L75.5521 42.316L79.1672 46.8839H79.7262V41.2085H79.0689V45.7886Z" fill="#F6F8FA"/>
<path d="M73.4052 41.2085H72.7479V46.8839H73.4052V41.2085Z" fill="#F6F8FA"/>
<path d="M81.8641 44.2741H84.5608V43.7112H81.8641V41.8082H84.9632V41.2085H81.2068V46.8839H85.0001V46.2873H81.8641V44.2741Z" fill="#F6F8FA"/>
<path d="M66.2824 45.7886L66.2794 45.7855L62.655 41.2085H62.1052V46.8839H62.7625V42.313L62.7687 42.316L66.3838 46.8839H66.9397V41.2085H66.2824V45.7886Z" fill="#F6F8FA"/>
<path d="M59.5498 41.4777C59.0829 41.2146 58.5761 41.083 58.0263 41.083C57.4765 41.083 56.9636 41.2146 56.4998 41.4777C56.036 41.7408 55.6674 42.0988 55.3972 42.5485C55.1238 43.0013 54.9886 43.497 54.9886 44.0415C54.9886 44.5861 55.1238 45.0726 55.3972 45.5254C55.6705 45.9782 56.0391 46.3362 56.5029 46.5962C56.9698 46.8593 57.4765 46.9909 58.0263 46.9909C58.5761 46.9909 59.0829 46.8593 59.5498 46.5962C60.0136 46.3331 60.3822 45.9751 60.6555 45.5254C60.9289 45.0726 61.064 44.58 61.064 44.0415C61.064 43.5031 60.9289 43.0013 60.6555 42.5485C60.3822 42.0957 60.0136 41.7377 59.5498 41.4777ZM60.0904 45.2286C59.8754 45.5866 59.5866 45.8681 59.2242 46.073C58.8587 46.278 58.4625 46.3821 58.0294 46.3821C57.5963 46.3821 57.197 46.278 56.8346 46.073C56.4722 45.8681 56.1835 45.5866 55.9684 45.2286C55.7534 44.8707 55.649 44.476 55.649 44.0415C55.649 43.6071 55.7565 43.2063 55.9684 42.8514C56.1804 42.4934 56.4691 42.212 56.8346 42.0039C57.2001 41.7959 57.5963 41.6918 58.0294 41.6918C58.4625 41.6918 58.8618 41.7959 59.2242 42.0009C59.5897 42.2058 59.8784 42.4873 60.0904 42.8483C60.3054 43.2063 60.4098 43.604 60.4098 44.0415C60.4098 44.479 60.3023 44.8707 60.0904 45.2286Z" fill="#F6F8FA"/>
<path d="M69.0775 41.2085H68.4202V46.8839H71.9001V46.2873H69.0775V41.2085Z" fill="#F6F8FA"/>
<path d="M61.4019 0H43.5843C41.3575 0 39.5453 1.8051 39.5453 4.02324V32.5959C39.5453 34.814 41.3575 36.6191 43.5843 36.6191H61.4019C63.6287 36.6191 65.4409 34.814 65.4409 32.5959V4.02324C65.4409 1.8051 63.6287 0 61.4019 0ZM62.0868 32.5959C62.0868 32.9722 61.7797 33.2782 61.4019 33.2782H43.5843C43.2065 33.2782 42.8993 32.9722 42.8993 32.5959V4.02324C42.8993 3.64692 43.2065 3.34097 43.5843 3.34097H61.4019C61.7797 3.34097 62.0868 3.64692 62.0868 4.02324V32.5959Z" fill="#8060F6"/>
<path d="M59.43 17.6777C58.96 17.6777 58.5792 18.0571 58.5792 18.5252V22.8636C58.5792 23.2858 58.4317 23.6591 58.1369 23.9711L56.5151 25.7089C56.1926 26.0546 55.7872 26.229 55.3173 26.229H55.2558C55.1606 26.229 55.0838 26.177 55.0378 26.0914C55.004 25.9965 55.0193 25.9017 55.09 25.8313L57.3475 23.4724C57.6424 23.1604 57.6332 22.6617 57.3229 22.3588C57.0004 22.0651 56.4998 22.0742 56.1957 22.3832L53.2962 25.4152C52.9922 25.7273 52.8447 26.0975 52.8447 26.538V31.4914H57.0895V29.3742L59.9613 25.608C60.1794 25.3142 60.29 24.993 60.29 24.632V18.5313C60.29 18.0632 59.8999 17.6839 59.43 17.6839V17.6777Z" fill="#F6F8FA"/>
<path d="M48.7872 22.3802C48.4924 22.0681 47.9795 22.0589 47.6662 22.3526C47.3529 22.6555 47.3375 23.1573 47.6385 23.4755L49.896 25.8252C49.9667 25.8955 49.9821 25.9996 49.9391 26.0852C49.9053 26.1709 49.8254 26.2229 49.7302 26.2229H49.6595C49.1896 26.2229 48.7903 26.0485 48.4709 25.7059L46.8399 23.9681C46.5543 23.656 46.4069 23.2858 46.4069 22.8636V18.5252C46.4069 18.0602 46.026 17.6777 45.5561 17.6777C45.0861 17.6777 44.696 18.0571 44.696 18.5252V24.6259C44.696 24.9899 44.8005 25.3081 45.0247 25.6018L47.8904 29.3681V31.4852H52.1444V26.535C52.1444 26.0944 51.9877 25.7212 51.6929 25.4121L48.7842 22.3802H48.7872Z" fill="#F6F8FA"/>
<path d="M47.4175 14.2512V17.9899C47.4175 18.7486 48.0379 19.3697 48.8027 19.3697C49.5675 19.3697 50.1879 18.7517 50.1879 17.9899V14.2512C50.1879 13.4924 49.5675 12.8713 48.8027 12.8713C48.0379 12.8713 47.4175 13.4894 47.4175 14.2512Z" fill="#F6F8FA"/>
<path d="M53.7939 21.2054H55.262C56.5336 21.2054 57.5687 20.1744 57.5687 18.9077V14.2512C57.5687 13.4924 56.9483 12.8713 56.1835 12.8713C55.4187 12.8713 54.7982 13.4894 54.7982 14.2512V17.9899C54.7982 18.7486 55.4187 19.3697 56.1835 19.3697C56.3217 19.3697 56.4538 19.3422 56.5797 19.3055C56.4077 19.8715 55.8855 20.2906 55.259 20.2906H53.7908C53.6004 19.7583 53.0936 19.3728 52.4916 19.3728C51.7298 19.3728 51.1063 19.9908 51.1063 20.7526C51.1063 21.5144 51.7268 22.1324 52.4916 22.1324C53.0936 22.1324 53.6004 21.7469 53.7908 21.2146L53.7939 21.2054Z" fill="#F6F8FA"/>
<path d="M45.5561 16.9557C46.0168 16.9557 46.3915 16.5824 46.3915 16.1235H46.3946V12.8743C46.3946 9.52723 49.1282 6.80121 52.4884 6.80121C55.8486 6.80121 58.5822 9.52417 58.5822 12.8743V16.1296H58.5853C58.5853 16.5885 58.96 16.9557 59.4207 16.9557C59.8814 16.9557 60.2531 16.5855 60.2561 16.1296V12.8713C60.2561 8.60326 56.77 5.13379 52.4853 5.13379C48.2006 5.13379 44.7145 8.60632 44.7145 12.8743V16.1235C44.7145 16.5824 45.0892 16.9557 45.5499 16.9557H45.5561Z" fill="#F6F8FA"/>
<path d="M17.4798 28.9919H2.50325V19.5564H17.4798V17.0629H2.50325V7.62435H17.4798V5.13086H2.50325H0V7.62435V17.0629V19.5564V28.9919V31.4884H17.4798V28.9919Z" fill="#F6F8FA"/>
<path d="M19.9861 5.21652V7.62435V17.0629V19.5564V31.4854H22.4893V19.5564H37.4689V17.0629H22.4893V7.62435H37.4689V5.13086H19.9861V5.21652Z" fill="#F6F8FA"/>
<path d="M85 5.13086H82.4967V31.4884H85V5.13086Z" fill="#F6F8FA"/>
<path d="M70.0235 5.13086H67.5203V31.4854H70.0235V18.8741L79.9904 28.8022L79.9935 25.2777L70.0235 15.3465V5.13086Z" fill="#F6F8FA"/>
</g>
<defs>
<clipPath id="clip0_17_151">
<rect width="85" height="47" fill="white"/>
</clipPath>
</defs>
</svg>
