<svg width="50" height="50" viewBox="0 0 50 50" xmlns="http://www.w3.org/2000/svg">
<circle cx="25" cy="25" r="25"/>
<path d="M24.9985 32.7475C27.9528 32.7475 30.3579 30.3424 30.3579 27.388V15.3564C30.3579 12.402 27.9528 10 24.9985 10C23.5784 10.0016 22.2169 10.5665 21.2127 11.5707C20.2086 12.5748 19.6437 13.9363 19.6421 15.3564V27.3911C19.6421 30.3424 22.0441 32.7475 24.9985 32.7475Z" fill="white"/>
<path d="M33.6102 24.1885H32.5427C32.3781 24.1885 32.2202 24.2538 32.1038 24.3702C31.9874 24.4866 31.922 24.6445 31.922 24.8091V26.9877C31.922 30.8048 28.8187 33.9112 25.0016 33.9112C21.1844 33.9112 18.0749 30.8079 18.0749 26.9908V24.8029C18.0749 24.6383 18.0095 24.4804 17.8931 24.364C17.7767 24.2476 17.6188 24.1823 17.4542 24.1823H16.3929C16.2283 24.1823 16.0704 24.2476 15.954 24.364C15.8376 24.4804 15.7722 24.6383 15.7722 24.8029V26.9846C15.7722 31.5496 19.3193 35.5715 23.8471 36.1425V37.688H19.0804C18.9158 37.688 18.7579 37.7534 18.6415 37.8698C18.5251 37.9862 18.4597 38.144 18.4597 38.3087V39.3762C18.4597 39.7176 18.739 39.9969 19.0804 39.9969H30.9165C31.0811 39.9969 31.239 39.9315 31.3554 39.8151C31.4718 39.6987 31.5372 39.5408 31.5372 39.3762V38.3087C31.5372 38.144 31.4718 37.9862 31.3554 37.8698C31.239 37.7534 31.0811 37.688 30.9165 37.688H26.1529V36.1425C30.6838 35.5715 34.2309 31.5496 34.2309 26.9877V24.8029C34.2309 24.6383 34.1655 24.4804 34.0491 24.364C33.9327 24.2476 33.7748 24.1823 33.6102 24.1823V24.1885Z" fill="white"/>
</svg>
