<svg width="320" height="151" fill="none" xmlns="http://www.w3.org/2000/svg"><path d="M0 80.727s11.954-2.474 16-2.57c4.046-.095 12.074 1.707 16.131 1.834s11.905-1.098 15.873-.815c3.966.284 11.927 3.21 15.998 3.146 4.07-.064 11.954-2.984 16-3.666 4.046-.683 11.978-1.814 16-1.75 4.019.063 12.011 1.65 15.997 2.27 3.989.62 11.943 2.773 16 2.706 4.057-.069 11.927-2.978 16-3.23 4.073-.254 11.996 1.46 16 1.224s11.927-3.247 16-3.147c4.073.1 11.942 3.258 16 3.993 4.057.736 12.543 1.822 16.756 1.95 3.815.11 12.29 1.54 15.246-.872 12.196-9.951 5.09-49.462 16-60.793 2.897-3.011 11.826-4.634 15.997-4.891 4.173-.258 11.95 2.542 16 2.795 4.051.251 12.332-.111 16.372-.789 4.041-.678 12.011-2.684 15.63-4.544C308.531 11.25 320 1 320 1v150H0V80.727Z" fill="url(#a)"/><path d="M0 80.757s11.953-2.475 16-2.57c4.045-.094 12.074 1.708 16.13 1.834 4.057.126 11.906-1.098 15.873-.814 3.967.284 11.927 3.21 16 3.148 4.071-.063 11.952-2.985 15.998-3.669 4.046-.683 11.98-1.813 16-1.75 4.019.063 12.011 1.65 15.999 2.27 3.988.62 11.943 2.776 15.999 2.707 4.056-.068 11.927-2.98 15.999-3.232 4.072-.252 11.996 1.461 15.999 1.225 4.004-.237 11.927-3.248 16-3.148 4.072.1 11.942 3.258 15.999 3.994 4.056.736 12.543 1.824 16.758 1.95 3.814.11 12.29 1.54 15.245-.873 12.196-9.954 5.089-49.48 16-60.816 2.897-3.012 11.827-4.636 15.999-4.893 4.172-.258 11.948 2.544 15.999 2.796 4.051.252 12.333-.11 16.373-.788 4.041-.678 12.012-2.686 15.631-4.546C308.531 11.253 320 1 320 1" stroke="url(#b)" stroke-width="2" stroke-miterlimit="10"/><defs><linearGradient id="a" x1="160" y1="33.778" x2="160" y2="151" gradientUnits="userSpaceOnUse"><stop stop-opacity=".8"/><stop offset="1" stop-opacity="0"/></linearGradient><linearGradient id="b" x1="203.988" y1="83.252" x2="203.988" y2="1" gradientUnits="userSpaceOnUse"><stop stop-color="#D90000"/><stop offset="1" stop-color="#0BFF6C"/></linearGradient></defs></svg>