<svg width="320" height="85" fill="none" xmlns="http://www.w3.org/2000/svg"><path d="M0 80.757s11.953-2.475 16-2.57c4.045-.094 12.074 1.708 16.13 1.834 4.057.126 11.906-1.098 15.873-.814 3.967.284 11.927 3.21 16 3.148 4.071-.063 11.952-2.985 15.998-3.669 4.046-.683 11.98-1.813 16-1.75 4.019.063 12.011 1.65 15.999 2.27 3.988.62 11.943 2.776 15.999 2.707 4.056-.068 11.927-2.98 15.999-3.232 4.072-.252 11.996 1.461 15.999 1.225 4.004-.237 11.927-3.248 16-3.148 4.072.1 11.942 3.258 15.999 3.994 4.056.736 12.543 1.824 16.758 1.95 3.814.11 12.29 1.54 15.245-.873 12.196-9.954 5.089-49.48 16-60.816 2.897-3.012 11.827-4.636 15.999-4.893 4.172-.258 11.948 2.544 15.999 2.796 4.051.252 12.333-.11 16.373-.788 4.041-.678 12.012-2.686 15.631-4.546C308.531 11.253 320 1 320 1" stroke="url(#a)" stroke-width="2" stroke-miterlimit="10"/><defs><linearGradient id="a" x1="203.988" y1="83.252" x2="203.988" y2="1" gradientUnits="userSpaceOnUse"><stop stop-color="#D90000"/><stop offset="1" stop-color="#0BFF6C"/></linearGradient></defs></svg>